<svg id="Layer_1" data-name="Layer 1" xmlns="http://www.w3.org/2000/svg" xmlns:xlink="http://www.w3.org/1999/xlink" viewBox="0 0 128 128">
  <defs>
    <linearGradient id="linear-gradient" x1="19.2624" y1="142.7359" x2="139.3267" y2="2.5389" gradientTransform="translate(76.2999 -31.4223) rotate(45)" gradientUnits="userSpaceOnUse">
      <stop offset="0" stop-color="#388a6d"/>
      <stop offset="1" stop-color="#6acca8"/>
    </linearGradient>
  </defs>
  <rect x="-14.3238" y="58.7616" width="180.8076" height="35.2589" transform="translate(-31.7333 76.1711) rotate(-45)" style="fill: url(#linear-gradient)"/>
  <g>
    <path d="M41.7012,117.998a3.6206,3.6206,0,0,1-.1719,1.9161,4.3631,4.3631,0,0,1-.9854,1.5078,5.7721,5.7721,0,0,1-4.0166,1.9531A5.631,5.631,0,0,1,32.5,121.4473a9.042,9.042,0,0,1-1.7578-2.4434,7.6911,7.6911,0,0,1-.7637-2.7363,6.585,6.585,0,0,1,1.9863-5.2832,8.0668,8.0668,0,0,1,1.6924-1.3106,5.04,5.04,0,0,1,1.8076-.6367,4.0226,4.0226,0,0,1,1.8262.1719,4.4759,4.4759,0,0,1,1.75,1.1387l-1.998,1.999a2.0679,2.0679,0,0,0-1.711-.669,3.14,3.14,0,0,0-1.6738.9746,3.504,3.504,0,0,0-.98,1.68,4.1832,4.1832,0,0,0-.0254,1.834,5.8639,5.8639,0,0,0,.6934,1.7744,7.395,7.395,0,0,0,1.1523,1.5088,4.514,4.514,0,0,0,1.0118.77,3.165,3.165,0,0,0,1.1132.3759,2.5034,2.5034,0,0,0,1.1524-.1211,2.9865,2.9865,0,0,0,1.1269-.7451,4.1968,4.1968,0,0,0,.84-1.1328,3.1616,3.1616,0,0,0,.3105-1.1133,3.0226,3.0226,0,0,0-.12-1.1133,5.7673,5.7673,0,0,0-.4707-1.12L37.3613,117.35,36.19,115.541l3.8565-3.8555,3.8691,5.9561-1.26,1.26-.9287-.9287Z" style="fill: #fff"/>
    <path d="M40.2754,103.1074l5.8555,8.959,4.3916-4.3906,1.3232,2.0351-6.3887,6.3907-7.1914-10.9844Z" style="fill: #fff"/>
    <path d="M47.709,102.0371a7.6464,7.6464,0,0,1-.7637-2.7363,6.5909,6.5909,0,0,1,1.9854-5.2822,7.4839,7.4839,0,0,1,1.916-1.419,4.7011,4.7011,0,0,1,2.0176-.5283,4.7741,4.7741,0,0,1,2.03.4131A6.442,6.442,0,0,1,56.86,93.8789a9.7149,9.7149,0,0,1,1.8076,2.4688,7.8553,7.8553,0,0,1,.834,2.7558,6.44,6.44,0,0,1-.3243,2.7813,6.7315,6.7315,0,0,1-1.6679,2.57,5.7622,5.7622,0,0,1-4.0157,1.9531,5.631,5.631,0,0,1-4.0273-1.9277A9.042,9.042,0,0,1,47.709,102.0371Zm4.7676,1.2149a3.1624,3.1624,0,0,0,1.1132.3769,2.5182,2.5182,0,0,0,1.1524-.1211,2.9977,2.9977,0,0,0,1.126-.7451,3.2953,3.2953,0,0,0,.9345-1.6357,4.3626,4.3626,0,0,0,.0137-1.82,5.9039,5.9039,0,0,0-.6748-1.7812,7.1084,7.1084,0,0,0-1.14-1.51,5.2764,5.2764,0,0,0-1.0176-.8008A2.94,2.94,0,0,0,52.89,94.82a2.4723,2.4723,0,0,0-1.1328.1143,2.9619,2.9619,0,0,0-1.1328.7509,3.5109,3.5109,0,0,0-.98,1.68,4.1668,4.1668,0,0,0-.0263,1.834,5.8638,5.8638,0,0,0,.6943,1.7754,7.3845,7.3845,0,0,0,1.1523,1.5078A4.4623,4.4623,0,0,0,52.4766,103.252Z" style="fill: #fff"/>
    <path d="M57.6113,92.1348a7.6453,7.6453,0,0,1-.7636-2.7364,6.5906,6.5906,0,0,1,1.9853-5.2822,7.4851,7.4851,0,0,1,1.916-1.4189,4.6806,4.6806,0,0,1,2.0166-.5274,4.76,4.76,0,0,1,2.0313.4121,6.442,6.442,0,0,1,1.9658,1.3946A9.712,9.712,0,0,1,68.57,86.4453a7.8564,7.8564,0,0,1,.834,2.7559,6.4383,6.4383,0,0,1-.3242,2.7812,6.731,6.731,0,0,1-1.668,2.57,5.7673,5.7673,0,0,1-4.0156,1.9541,5.64,5.64,0,0,1-4.0283-1.9277A9.0426,9.0426,0,0,1,57.6113,92.1348ZM62.3789,93.35a3.1638,3.1638,0,0,0,1.1133.377,2.5207,2.5207,0,0,0,1.1523-.1211,2.9969,2.9969,0,0,0,1.126-.7451,3.297,3.297,0,0,0,.9346-1.6358,4.3638,4.3638,0,0,0,.0137-1.82,5.9074,5.9074,0,0,0-.6749-1.7813,7.1069,7.1069,0,0,0-1.14-1.51,5.2734,5.2734,0,0,0-1.0176-.8008,2.9379,2.9379,0,0,0-1.0947-.3945,2.4871,2.4871,0,0,0-1.1328.1142,2.962,2.962,0,0,0-1.1328.751,3.51,3.51,0,0,0-.98,1.68,4.1668,4.1668,0,0,0-.0264,1.834,5.8638,5.8638,0,0,0,.6943,1.7754A7.3876,7.3876,0,0,0,61.3672,92.58,4.4635,4.4635,0,0,0,62.3789,93.35Z" style="fill: #fff"/>
    <path d="M69.0029,74.38a8.0286,8.0286,0,0,1,1.3994-1.1338,3.8384,3.8384,0,0,1,1.44-.5586,2.89,2.89,0,0,1,1.4687.1582,4.2053,4.2053,0,0,1,1.4961,1.0254A4.2984,4.2984,0,0,1,75.8633,75.5a4.1962,4.1962,0,0,1,.2226,1.7754,4.9553,4.9553,0,0,1-.5029,1.75A5.892,5.892,0,0,1,74.45,80.5908l-2.47,2.47,2.5722,3.9454L72.5664,88.99,65.3633,78.02Zm3.793,4.76a2.4867,2.4867,0,0,0,.8154-1.5908,2.1577,2.1577,0,0,0-.7646-1.6426,1.66,1.66,0,0,0-.6875-.4443,1.2363,1.2363,0,0,0-.668-.0195,2.0313,2.0313,0,0,0-.624.28,3.6271,3.6271,0,0,0-.5654.4638l-1.7061,1.7061L70.76,81.1758Z" style="fill: #fff"/>
    <path d="M77.1621,66.2207a5.7128,5.7128,0,0,1,3.8115-1.9658,4.87,4.87,0,0,1,3.583,1.6474,10.0573,10.0573,0,0,1,1.8711,2.5332,6.9842,6.9842,0,0,1,.7754,2.75,6.3557,6.3557,0,0,1-.4765,2.8067,8.2571,8.2571,0,0,1-1.878,2.7168l-3.792,3.793L73.8789,69.5039ZM83.2578,74.94a4.424,4.424,0,0,0,1.0762-1.6348,4.051,4.051,0,0,0,.2285-1.7568,4.8165,4.8165,0,0,0-.5088-1.7315,6.1446,6.1446,0,0,0-1.1514-1.5723,4.8858,4.8858,0,0,0-1.0058-.788,2.5438,2.5438,0,0,0-1.044-.3438,2.2436,2.2436,0,0,0-1.0693.165,3.2993,3.2993,0,0,0-1.0684.75l-1.5019,1.502,4.5059,6.9512Z" style="fill: #fff"/>
    <path d="M87.8789,55.5039l10.6016,7.5732-1.9854,1.9854L94.18,63.3315,90.78,66.7305l.8779,3.1689L89.5586,72l-3.73-14.4463Zm4.6328,6.5166-4.0605-3.1694-.0254.0259L90.08,64.4521Z" style="fill: #fff"/>
    <path d="M91.3525,55.39l-1.3232-2.0361,7.5859-7.5859,1.3233,2.0361-2.7237,2.7241,5.8555,8.96-2.0117,2.0112-5.8555-8.96Z" style="fill: #fff"/>
    <path d="M105.5576,37.8252l1.336,2.0234-4.9385,4.9385,1.539,2.355,4.57-4.5693,1.2226,1.8837-4.57,4.5694,1.7568,2.6987,5.0147-5.0146,1.3242,2.0356-7,7L98.6211,44.7622Z" style="fill: #fff"/>
    <path d="M117.1143,38.9961l-.8916.8911-3.5762-4.2124-1.9473-2.9917,1.9219-1.9214,1.9355,3.0034Zm1.1836.3437,1.54,2.38L117.84,43.7178l-1.5527-2.3672Z" style="fill: #fff"/>
    <path d="M120.8818,35.2285l-.8916.8916-3.5761-4.2129-1.9473-2.9917,1.9219-1.9214,1.9355,3.0035Zm1.1836.3438,1.54,2.38-1.9981,1.9986-1.5527-2.3677Z" style="fill: #fff"/>
  </g>
</svg>
