<svg id="Layer_1" data-name="Layer 1" xmlns="http://www.w3.org/2000/svg" xmlns:xlink="http://www.w3.org/1999/xlink" viewBox="0 0 128 128">
  <defs>
    <linearGradient id="linear-gradient" x1="32.3927" y1="145.7766" x2="120.7189" y2="5.4939" gradientTransform="translate(76.2999 -31.4223) rotate(45)" gradientUnits="userSpaceOnUse">
      <stop offset="0" stop-color="#fb9840"/>
      <stop offset="1" stop-color="#f9cf32"/>
    </linearGradient>
  </defs>
  <rect x="-14.3238" y="58.7616" width="180.8076" height="35.2589" transform="translate(-31.7333 76.1711) rotate(-45)" style="fill: url(#linear-gradient)"/>
  <g>
    <path d="M50.3952,89.9334l11.9135,5.3292.0341-.0342-6.89-10.3521,2.4445-2.4445,9.5536,14.68-2.6645,2.6644L52.9581,94.6l-.0341.0342,6.771,10.2327-2.4777,2.4776L47.6459,92.6828Z" style="fill: #fff"/>
    <path d="M69.4536,70.875l1.7819,2.699-6.5842,6.5842,2.0533,3.1389,6.0919-6.0919,1.629,2.5114-6.0919,6.0919,2.3416,3.5984,6.6864-6.6864,1.765,2.7151-9.3332,9.3333L60.2046,80.1241Z" style="fill: #fff"/>
    <path d="M90.0219,74.54l-8.9611-8.3493-.0338.0339,4.8876,12.4227L83.2332,81.329,70.285,70.0436l2.6641-2.664,9.0453,8.7055.0338-.0338L76.9887,63.34l2.5453-2.5453,9.1468,8.5364.0339-.0338L83.573,56.7557l2.664-2.6641,6.4324,17.8013Z" style="fill: #fff"/>
    <path d="M102.4611,56.8752l2.053,3.173-2.6648,2.6647-2.07-3.1564Zm-1.5785-.4586L99.6942,57.605,94.926,51.9876,92.3289,48l2.5626-2.5626,2.58,4.0051Z" style="fill: #fff"/>
  </g>
</svg>
