<svg id="Layer_1" data-name="Layer 1" xmlns="http://www.w3.org/2000/svg" xmlns:xlink="http://www.w3.org/1999/xlink" viewBox="0 0 128 128">
  <defs>
    <linearGradient id="linear-gradient" x1="32.3927" y1="145.7766" x2="120.7189" y2="5.4939" gradientTransform="translate(76.2999 -31.4223) rotate(45)" gradientUnits="userSpaceOnUse">
      <stop offset="0" stop-color="#388a6d"/>
      <stop offset="1" stop-color="#6acca8"/>
    </linearGradient>
  </defs>
  <rect x="-14.3238" y="58.7616" width="180.8076" height="35.2589" transform="translate(-31.7333 76.1711) rotate(-45)" style="fill: url(#linear-gradient)"/>
  <g>
    <path d="M29.2168,116.1875l6.9492,3.1074.02-.0195-4.02-6.0391,1.4258-1.4258,5.5732,8.5635-1.5537,1.5537-6.9-3.0185-.0195.02,3.9492,5.97-1.4453,1.4454-5.582-8.5528Z" style="fill: #fff"/>
    <path d="M40.334,105.07l1.039,1.5733-3.8418,3.8408,1.1993,1.832,3.5537-3.5547.95,1.4658L39.68,113.7812l1.3672,2.0977,3.8994-3.8994,1.03,1.583-5.4454,5.4453-5.5927-8.543Z" style="fill: #fff"/>
    <path d="M52.3311,107.208l-5.2276-4.87-.0195.0195,2.8515,7.2461-1.5644,1.5645-7.5527-6.584,1.5546-1.5528,5.2764,5.0772.0186-.0186-2.94-7.415L46.2139,99.19l5.3349,4.9785.02-.02L48.57,96.833l1.5537-1.5537,3.752,10.3838Z" style="fill: #fff"/>
    <path d="M63.8242,94.2705a2.8289,2.8289,0,0,1-.1328,1.4893,3.4129,3.4129,0,0,1-.7676,1.1728,4.4907,4.4907,0,0,1-3.124,1.52,4.3913,4.3913,0,0,1-3.1338-1.499,7.017,7.017,0,0,1-1.3652-1.9023,5.9584,5.9584,0,0,1-.5938-2.127,5.23,5.23,0,0,1,.2813-2.1543,5.1738,5.1738,0,0,1,1.2627-1.9541,6.2567,6.2567,0,0,1,1.3174-1.02,3.9118,3.9118,0,0,1,1.4052-.4941,3.112,3.112,0,0,1,1.4209.1338,3.49,3.49,0,0,1,1.3614.8857L60.2012,89.875a1.6028,1.6028,0,0,0-1.3311-.52,2.4375,2.4375,0,0,0-1.3017.7568,2.72,2.72,0,0,0-.7618,1.3067,3.2541,3.2541,0,0,0-.0214,1.4258,4.5561,4.5561,0,0,0,.541,1.3808,5.7143,5.7143,0,0,0,.8945,1.1738,3.5449,3.5449,0,0,0,.7871.6,2.4654,2.4654,0,0,0,.8662.2911,1.9267,1.9267,0,0,0,.8965-.0938,2.3,2.3,0,0,0,.876-.58,3.2782,3.2782,0,0,0,.6543-.8808,2.4758,2.4758,0,0,0,.2412-.8653,2.4025,2.4025,0,0,0-.0928-.8671,4.5368,4.5368,0,0,0-.3672-.87l-1.6328,1.6328-.9111-1.4052,2.999-3,3.01,4.6328-.98.9805-.7226-.7227Z" style="fill: #fff"/>
    <path d="M62.7158,82.6875,67.27,89.6562l3.4151-3.415,1.03,1.583-4.9707,4.9707L61.1523,84.252Z" style="fill: #fff"/>
    <path d="M68.4971,81.8555a5.928,5.928,0,0,1-.5928-2.1289,5.1157,5.1157,0,0,1,1.543-4.1075,5.8137,5.8137,0,0,1,1.49-1.1035,3.563,3.563,0,0,1,3.1475-.0888,5.0357,5.0357,0,0,1,1.53,1.083,7.5888,7.5888,0,0,1,1.4053,1.9209,6.1106,6.1106,0,0,1,.6494,2.1435,4.9956,4.9956,0,0,1-.2539,2.1621,5.2167,5.2167,0,0,1-1.2969,2,4.4833,4.4833,0,0,1-3.123,1.52,4.3857,4.3857,0,0,1-3.1328-1.5A6.9771,6.9771,0,0,1,68.4971,81.8555Zm3.707.9463a2.4538,2.4538,0,0,0,.8662.291,1.9412,1.9412,0,0,0,.8965-.0938,2.3358,2.3358,0,0,0,.876-.5791,2.56,2.56,0,0,0,.7275-1.2724,3.4185,3.4185,0,0,0,.01-1.4151,4.6108,4.6108,0,0,0-.5244-1.3857,5.5115,5.5115,0,0,0-.8858-1.1729,4.0208,4.0208,0,0,0-.7929-.623,2.2375,2.2375,0,0,0-.8516-.3086,1.9245,1.9245,0,0,0-.88.09,2.3024,2.3024,0,0,0-.8818.584,2.7183,2.7183,0,0,0-.7617,1.3067,3.2364,3.2364,0,0,0-.02,1.4257,4.5865,4.5865,0,0,0,.5391,1.3809,5.7657,5.7657,0,0,0,.8955,1.1728A3.5388,3.5388,0,0,0,72.2041,82.8018Z" style="fill: #fff"/>
    <path d="M76.1992,74.1543a5.929,5.929,0,0,1-.5937-2.1289,5.1129,5.1129,0,0,1,1.5429-4.1074,5.7969,5.7969,0,0,1,1.49-1.1035,3.6586,3.6586,0,0,1,1.5683-.4122,3.7138,3.7138,0,0,1,1.58.3223,5.0386,5.0386,0,0,1,1.5293,1.084A7.5258,7.5258,0,0,1,84.7217,69.73a6.0615,6.0615,0,0,1,.6494,2.1435,4.9969,4.9969,0,0,1-.2529,2.1622,5.2385,5.2385,0,0,1-1.2969,2,4.4854,4.4854,0,0,1-3.124,1.5195,4.3852,4.3852,0,0,1-3.1328-1.5A6.9721,6.9721,0,0,1,76.1992,74.1543Zm3.707.9453a2.4476,2.4476,0,0,0,.8653.292,1.9412,1.9412,0,0,0,.8965-.0937,2.332,2.332,0,0,0,.8769-.5791,2.5621,2.5621,0,0,0,.7266-1.2735,3.3969,3.3969,0,0,0,.01-1.4141,4.5744,4.5744,0,0,0-.5244-1.3857,5.4769,5.4769,0,0,0-.8857-1.1738,4.0512,4.0512,0,0,0-.792-.6231,2.2477,2.2477,0,0,0-.8516-.3076,1.9216,1.9216,0,0,0-.88.09,2.2908,2.2908,0,0,0-.8819.583,2.7269,2.7269,0,0,0-.7627,1.3076,3.2531,3.2531,0,0,0-.02,1.4258,4.62,4.62,0,0,0,.5391,1.3808A5.7712,5.7712,0,0,0,79.1191,74.5,3.4935,3.4935,0,0,0,79.9062,75.1Z" style="fill: #fff"/>
    <path d="M85.0586,60.3447a6.2233,6.2233,0,0,1,1.0879-.8813,3.02,3.02,0,0,1,1.1191-.4356,2.2528,2.2528,0,0,1,1.1436.1236,3.2937,3.2937,0,0,1,1.1631.7973,3.3429,3.3429,0,0,1,.8222,1.2671,3.2516,3.2516,0,0,1,.1729,1.3809,3.85,3.85,0,0,1-.3916,1.3618,4.5481,4.5481,0,0,1-.8809,1.2173l-1.92,1.92,1.999,3.0693L87.83,71.709l-5.6026-8.5332Zm2.9492,3.7027a1.932,1.932,0,0,0,.6348-1.2383,1.6783,1.6783,0,0,0-.5947-1.2759,1.3055,1.3055,0,0,0-.5342-.3472.977.977,0,0,0-.52-.0151,1.5962,1.5962,0,0,0-.4853.2178,2.8713,2.8713,0,0,0-.44.3618l-1.3272,1.3266,1.6826,2.5538Z" style="fill: #fff"/>
    <path d="M91.4043,54A4.4411,4.4411,0,0,1,94.3691,52.47a3.7865,3.7865,0,0,1,2.7871,1.2813,7.8,7.8,0,0,1,1.4542,1.97,5.4514,5.4514,0,0,1,.6044,2.1382,4.9628,4.9628,0,0,1-.371,2.1831,6.4131,6.4131,0,0,1-1.461,2.1132l-2.9492,2.9493L88.85,56.5537Zm4.74,6.7813a3.4579,3.4579,0,0,0,.8379-1.272,3.1377,3.1377,0,0,0,.1778-1.3662,3.7375,3.7375,0,0,0-.3956-1.3467,4.7842,4.7842,0,0,0-.8964-1.2227,3.8048,3.8048,0,0,0-.7823-.6137,2.0027,2.0027,0,0,0-.8115-.2671,1.7642,1.7642,0,0,0-.831.1279,2.58,2.58,0,0,0-.8321.5845l-1.1679,1.1684,3.5039,5.4048Z" style="fill: #fff"/>
    <path d="M99.7393,45.6641l8.2461,5.89-1.544,1.544L104.64,51.752l-2.6435,2.6435L102.68,56.86l-1.6348,1.6338L98.1455,47.2578Zm3.6035,5.0683-3.1582-2.4648-.02.02,1.2871,4.3359Z" style="fill: #fff"/>
    <path d="M102.4414,45.5752l-1.0293-1.5845,5.9-5.9,1.0293,1.5845-2.1191,2.1182,4.5546,6.9682-1.5644,1.565-4.5547-6.9688Z" style="fill: #fff"/>
    <path d="M113.4893,31.9141l1.04,1.5737-3.8418,3.8408,1.1982,1.8316L115.44,35.606l.9511,1.4658-3.5547,3.5542,1.3662,2.0976,3.9-3.9,1.03,1.5835-5.4443,5.4449-5.5937-8.543Z" style="fill: #fff"/>
    <path d="M122.4785,32.8247l-.6933.6934-2.7813-3.2774-1.5156-2.3257,1.4951-1.4951,1.5049,2.3364Zm.92.2676,1.1973,1.8506-1.5547,1.5547-1.206-1.8414Z" style="fill: #fff"/>
  </g>
</svg>
