<svg id="Layer_1" data-name="Layer 1" xmlns="http://www.w3.org/2000/svg" xmlns:xlink="http://www.w3.org/1999/xlink" viewBox="0 0 128 128">
  <defs>
    <linearGradient id="linear-gradient" x1="32.3927" y1="145.7766" x2="120.7189" y2="5.4939" gradientTransform="translate(76.2999 -31.4223) rotate(45)" gradientUnits="userSpaceOnUse">
      <stop offset="0" stop-color="#694f9c"/>
      <stop offset="1" stop-color="#cfa0f2"/>
    </linearGradient>
  </defs>
  <rect x="-14.3238" y="58.7616" width="180.8076" height="35.2589" transform="translate(-31.7333 76.1711) rotate(-45)" style="fill: url(#linear-gradient)"/>
  <g>
    <path d="M34.644,109.7324l7.9425,3.5521.0221-.0221-4.5928-6.9019,1.6283-1.6282,6.3695,9.7862-1.7757,1.7757-7.8859-3.4513-.0228.0228,4.5147,6.8225L39.1922,121.34l-6.3809-9.7749Z" style="fill: #fff"/>
    <path d="M47.3491,97.0273l1.1877,1.7981-4.39,4.39,1.3693,2.093,4.0617-4.0617,1.0863,1.6745-4.0618,4.0617,1.5613,2.3982,4.4574-4.4574,1.1767,1.8106-6.2224,6.2224-6.3923-9.7634Z" style="fill: #fff"/>
    <path d="M61.061,99.4711,55.0879,93.904l-.0228.0228,3.2587,8.2816-1.7878,1.7878-8.6324-7.5234L49.68,94.6967l6.03,5.8033.0228-.0228-3.3595-8.4735,1.6967-1.6967,6.0981,5.6907.0228-.0228-3.4278-8.361,1.776-1.776L62.826,97.7061Z" style="fill: #fff"/>
    <path d="M74.1791,82.6642a4.7264,4.7264,0,0,1,.3846,1.8444,4.1706,4.1706,0,0,1-.4295,1.7871A6.8109,6.8109,0,0,1,72.77,88.1235a7.69,7.69,0,0,1-1.2837,1.0352,4.5175,4.5175,0,0,1-1.42.6159,3.08,3.08,0,0,1-1.46-.011,3.02,3.02,0,0,1-1.4025-.8487,4.5867,4.5867,0,0,1-.549-.6622q-.2433-.3554-.4813-.7064L62.487,81.8894l1.776-1.7761L67.9512,85.77c.0525.0829.1132.1782.1809.2831s.1416.2175.22.3336.1567.2244.232.3231a2.6258,2.6258,0,0,0,.2154.2486,1.5824,1.5824,0,0,0,.4012.2769,1.2214,1.2214,0,0,0,.5884.1243,1.909,1.909,0,0,0,.7416-.1864,3.0288,3.0288,0,0,0,.8708-.6443,3.289,3.289,0,0,0,.7409-1.0241,1.958,1.958,0,0,0,.1526-.9453,2.6448,2.6448,0,0,0-.3-.9557q-.2536-.492-.6049-1.0468l-3.7786-5.7922,1.7761-1.7761,3.7109,5.679A12.0866,12.0866,0,0,1,74.1791,82.6642Z" style="fill: #fff"/>
    <path d="M74.1622,70.2142a7.0658,7.0658,0,0,1,1.2443-1.0068,3.4078,3.4078,0,0,1,1.2782-.4979,2.5891,2.5891,0,0,1,1.3065.1409,3.77,3.77,0,0,1,1.3293.9108A3.8246,3.8246,0,0,1,80.26,71.21a3.7178,3.7178,0,0,1,.1982,1.5779,4.42,4.42,0,0,1-.4468,1.5558,5.2282,5.2282,0,0,1-1.0075,1.3914L76.8087,77.93l2.2863,3.5072-1.765,1.765L70.9267,73.45Zm3.3712,4.2316a2.2036,2.2036,0,0,0,.7237-1.4142,1.9154,1.9154,0,0,0-.6788-1.4591,1.4914,1.4914,0,0,0-.6105-.3964,1.1045,1.1045,0,0,0-.5945-.0173,1.826,1.826,0,0,0-.5545.2493,3.1866,3.1866,0,0,0-.5034.4123l-1.5161,1.516,1.9238,2.92Z" style="fill: #fff"/>
    <path d="M81.4142,62.9622a5.0838,5.0838,0,0,1,3.3877-1.7484,4.33,4.33,0,0,1,3.1848,1.4653A8.91,8.91,0,0,1,89.65,64.9309a6.2079,6.2079,0,0,1,.69,2.4438,5.6527,5.6527,0,0,1-.424,2.4942,7.319,7.319,0,0,1-1.669,2.4162l-3.3712,3.3712-6.3812-9.7745Zm5.4186,7.75a3.9464,3.9464,0,0,0,.9564-1.4536,3.6,3.6,0,0,0,.2037-1.5613,4.2845,4.2845,0,0,0-.453-1.5385,5.4372,5.4372,0,0,0-1.0234-1.3976,4.317,4.317,0,0,0-.8942-.7009,2.2885,2.2885,0,0,0-.9274-.3059,2.0124,2.0124,0,0,0-.9509.147,2.9378,2.9378,0,0,0-.95.6671l-1.3355,1.3355,4.0058,6.1768Z" style="fill: #fff"/>
    <path d="M90.9394,53.437l9.4244,6.7313-1.765,1.765L96.54,60.3948l-3.02,3.02.78,2.8174L92.433,68.0991,89.1178,55.2586Zm4.1183,5.7922-3.6094-2.8167-.0221.0221L92.8971,61.39Z" style="fill: #fff"/>
    <path d="M94.0282,53.3341l-1.1767-1.8092,6.7431-6.7431,1.1766,1.8092L98.35,49.0127l5.2053,7.9647-1.7878,1.7877L96.5624,50.8Z" style="fill: #fff"/>
    <path d="M106.6546,37.7218l1.1877,1.7982-4.39,4.39,1.3693,2.093,4.0617-4.0617,1.0862,1.6745-4.0617,4.0617,1.5613,2.3983,4.4574-4.4574,1.1767,1.8105-6.2224,6.2225-6.3923-9.7635Z" style="fill: #fff"/>
    <path d="M117.98,39.0677l1.3687,2.1158-1.7761,1.776-1.38-2.104Zm-1.0524-.3053-.792.7921-3.1792-3.7455-1.7305-2.6585,1.7084-1.7084,1.7187,2.67Z" style="fill: #fff"/>
  </g>
</svg>
